<svg width="173" height="40" viewBox="0 0 173 40" fill="none" xmlns="http://www.w3.org/2000/svg">
<path d="M120.182 9.50127C121.198 9.48747 122.132 9.59018 123.14 9.61515C122.965 9.98849 122.702 10.3745 122.478 10.7253L128.893 10.7071C132.044 10.7219 128.842 13.5122 127.965 14.2742C129.265 14.3783 131.905 13.7373 131.68 15.6894C131.346 18.5914 130.642 21.4526 130.234 24.3453C129.346 24.4133 128.276 24.3891 127.37 24.3884L115.113 24.3756C115.366 23.5437 115.512 22.2185 115.674 21.3375C116.009 19.5246 116.272 17.6297 116.617 15.8249C115.714 15.9136 115.233 15.9626 114.317 15.9708C114.948 15.1744 115.694 14.5824 116.447 13.894C118.108 12.3769 118.973 11.3562 120.182 9.50127ZM119.002 14.2982C120.846 14.2227 122.906 14.2645 124.796 14.2186C125.228 14.1613 126.293 12.9459 126.666 12.5552C124.93 12.5174 122.646 12.4802 120.93 12.5582C120.465 12.9895 119.449 13.9982 119.002 14.2982ZM124.295 22.345C125.194 22.3827 126.978 22.4938 127.805 22.4197C128.095 21.5555 128.171 20.9215 128.287 20.019C127.072 19.9584 125.895 20.0109 124.694 19.9847C124.544 20.657 124.376 21.6639 124.295 22.345ZM120.402 16.1323L119.225 16.1378C119.144 16.89 119.017 17.5649 118.881 18.3079L121.291 18.3132L122.395 18.3142C122.55 17.5882 122.692 16.8592 122.819 16.1277L120.402 16.1323ZM128.577 18.3152C128.667 17.7054 128.888 16.6919 128.923 16.1336C127.951 16.1195 126.181 16.1802 125.325 16.1138C125.232 16.7117 125.037 17.7316 124.988 18.3055L128.577 18.3152ZM118.665 19.9645C118.566 20.3629 118.266 21.9479 118.282 22.3188C118.893 22.5241 120.785 22.3403 121.589 22.4332C121.885 21.9957 122.031 20.6241 122.121 20.0203C121.04 19.9685 119.645 20.0627 118.665 19.9645Z" fill="#2C2C2C"/>
<path d="M101.407 9.51521C102.314 9.56616 103.193 9.52854 104.1 9.51676C103.967 10.4156 103.573 12.0679 103.539 12.9064C103.747 13.3524 112.868 12.813 113.314 13.1997C113.37 13.7324 113.123 14.7173 113.002 15.2746C111.303 15.3556 109.157 15.2999 107.425 15.3013C107.245 16.515 106.699 18.688 106.693 19.8656C108.081 18.8531 108.671 18.2333 109.743 16.9422C110.598 16.9221 111.453 16.9266 112.308 16.9558C110.895 19.3658 108.664 21.497 106.219 22.8559C105.943 23.4246 105.77 25.0668 105.69 25.7399C107.726 25.7823 109.796 25.7358 111.846 25.7688C111.647 26.3093 111.408 27.2502 111.242 27.8317C109.58 27.8754 107.785 27.8088 106.113 27.8364C105.596 27.8452 103.111 27.862 102.73 27.7577C102.633 27.4905 103.109 24.9659 103.206 24.5338C102.372 24.9437 101.491 25.4282 100.644 25.7816L98.9025 26.5159C99.04 25.6631 99.2039 24.8151 99.3936 23.9725C100.569 23.5834 102.591 22.4864 103.59 21.7804C104.001 20.1556 104.484 17.0232 104.786 15.2778C104.177 15.2615 103.546 15.2729 102.935 15.2759C101.71 20.1354 100.109 23.259 96.0532 26.4499C95.1774 27.1385 94.3084 27.619 93.4828 28.2456C93.644 27.37 93.8641 26.0252 94.1378 25.2088C97.6956 22.4339 99.078 19.509 100.158 15.2826C99.4031 15.2872 96.2536 15.3507 95.6773 15.238C95.5892 14.9778 95.8716 13.5445 95.9163 13.0943C97.3434 13.0215 99.2155 13.0693 100.677 13.071C100.802 12.3921 101.181 10.0431 101.407 9.51521Z" fill="#2C2C2C"/>
<path d="M53.0459 14.9159C54.9429 15.0483 55.6906 15.2008 57.1602 16.5272C57.6558 16.1849 60.2148 14.8592 60.6982 15.0731C60.7435 15.5641 59.8351 20.0594 59.6846 20.8876L58.9092 25.2382C58.6177 26.8911 58.4177 28.6614 57.5039 30.1044C56.4648 31.7453 54.5697 32.8974 52.6768 33.2743C50.2894 33.7501 46.895 33.5121 44.8105 32.1815C44.9642 31.5637 45.0737 30.9359 45.1377 30.3026C45.2456 29.853 45.2544 29.5937 45.2832 29.1327C45.6316 29.3763 46.0162 29.6584 46.3877 29.8603C48.6826 31.1073 52.295 31.5591 54.0176 29.1425C54.6369 28.2729 54.745 27.4475 54.9268 26.4413C53.7072 27.0928 52.8806 27.8173 51.4746 27.956C44.0131 28.6963 43.5218 19.7629 48.6992 16.3407C50.3087 15.277 51.129 15.0768 53.0459 14.9159ZM21.3857 14.9071C23.1228 14.6772 25.4513 15.2125 26.8135 16.3397C29.4021 18.4819 28.8049 22.7909 26.7939 25.1122C25.1235 27.0403 23.1808 27.955 20.665 28.163C18.8586 28.3487 16.9816 27.888 15.5322 26.7802C14.4601 25.951 13.7678 24.7292 13.6104 23.3886C13.0355 18.576 16.8766 15.3982 21.3857 14.9071ZM76.9883 15.0214C78.1153 14.9572 79.606 15.0413 80.7588 15.0468C80.2535 17.2749 80.0258 19.7323 79.5117 21.9862C78.9701 24.0772 79.812 25.8496 82.3408 25.2978C85.6809 24.5687 85.1306 20.3151 85.8594 17.7479C86.0754 16.9861 86.0208 15.8138 86.4346 15.1688C86.7521 14.9315 89.567 15.0156 90.0898 15.0497C89.9652 16.1652 89.6254 18.0463 89.3721 19.1249C89.3578 19.5114 89.1105 20.6938 89.0312 21.12L88.251 25.2401C88.102 26.0222 87.8698 27.072 87.8184 27.8427C85.87 27.9544 85.7938 27.5709 84.5537 26.2733C84.49 26.2067 84.416 26.2559 84.3232 26.2821C84.0218 26.7519 83.4923 26.9882 83.0107 27.2958C80.2995 29.0258 75.4313 28.3384 75.4121 24.3915C75.5178 22.4431 75.9655 20.4647 76.3184 18.5419C76.5114 17.4898 76.6991 15.9932 76.9883 15.0214ZM59.9248 9.65322C61.1522 9.56359 63.5793 9.61567 64.7588 9.89443C65.7029 10.1179 66.5153 12.4522 66.9102 13.3681L68.4805 16.9657C68.6918 16.7462 68.843 16.5147 69.0293 16.2782C70.5545 14.3386 72.031 12.3626 73.5508 10.4198C74.0432 9.73828 74.684 9.70383 75.4805 9.69521C76.6006 9.68311 77.7022 9.72374 78.8291 9.6376C76.9808 11.6113 74.8861 14.3285 73.1807 16.4638C72.2446 17.4832 70.6973 19.4821 69.8311 20.6132C69.7774 21.2656 69.5006 22.7279 69.3672 23.4169C69.095 24.8173 68.8606 26.5238 68.5078 27.8798C67.2413 27.8259 65.9275 27.8341 64.6562 27.8261C65.0741 25.3796 65.5971 22.9079 66.0068 20.452C65.782 19.8961 65.541 19.3523 65.2646 18.8134C63.9591 16.2668 62.9261 13.5172 61.3975 11.0966C61.0752 10.5862 60.383 10.0632 59.9248 9.65322ZM38.7988 14.9931C43.7117 14.5217 44.3567 17.7019 43.5635 21.5106C43.2107 23.2047 42.5844 26.1619 42.46 27.827C41.1819 27.8634 39.8499 27.8358 38.5684 27.8183C38.8677 26.6377 39.1107 24.8883 39.3438 23.6405C39.4914 22.3503 40.0353 20.7429 39.9453 19.453C39.7685 16.9243 36.0666 17.5391 34.9424 19.0263C34.1477 20.0447 34.1124 21.7469 33.8271 23.0028C33.4734 24.5602 33.3407 26.3577 32.8643 27.87C31.6577 27.8182 30.3418 27.8335 29.127 27.8241C29.1784 27.2514 29.3679 26.3705 29.4746 25.787L30.2676 21.5136L30.9326 17.5741C31.023 17.0185 31.2296 15.5402 31.417 15.0614C32.0818 15.2607 33.9824 16.5182 34.6123 16.9511C34.6269 16.9359 34.6417 16.9203 34.6562 16.9052L34.7305 16.831C35.673 15.8549 37.4261 15.0196 38.7988 14.9931ZM6.78223 9.66787C7.03524 9.64526 7.00447 9.60931 7.19629 9.70498C7.23452 9.79717 7.2531 9.85763 7.2334 9.95986C6.28607 14.8647 5.521 19.8548 4.50684 24.7431C5.27019 24.8231 6.5915 24.7887 7.39746 24.788C9.24739 24.7745 11.0975 24.7791 12.9473 24.8026C12.7072 25.6332 12.5589 26.9003 12.3506 27.827C11.2097 27.8493 10.0062 27.8313 8.86035 27.8319L3.33887 27.8329C2.26561 27.8369 1.05637 27.8806 0 27.8153C0.185071 27.1578 0.352861 26.0727 0.487305 25.3681C0.838307 23.5435 1.17136 21.7156 1.48535 19.8837C2.05734 16.6825 2.86027 12.9582 3.28809 9.77334C4.52779 9.75947 5.53607 9.7448 6.78223 9.66787ZM24.4766 21.9032C25.0436 18.8956 24.1751 17.1783 20.835 17.5321C19.5927 17.9293 18.7872 18.5143 18.1436 19.6942C17.5692 20.7474 17.2448 22.5603 17.6025 23.7206C17.817 24.4125 18.303 24.9888 18.9512 25.3192C19.518 25.6045 20.4838 25.7089 21.1016 25.5556C22.7835 25.2662 24.1724 23.5164 24.4766 21.9032ZM53.1133 17.5204C51.8156 17.842 50.7437 18.4719 50.0605 19.6581C48.6309 22.1406 48.8733 25.5654 52.5654 25.4745C54.3502 25.031 55.471 23.8855 55.7441 22.036C55.7746 21.8299 55.9178 20.7413 55.9766 20.578C56.7436 18.4504 55.3648 17.3851 53.1133 17.5204Z" fill="#2C2C2C"/>
<path d="M113.589 25.7318C119.598 25.9229 125.969 25.5958 132 25.7742L131.602 27.7603C131.038 27.938 126.062 27.8444 125.221 27.8384C121.261 27.8108 117.234 27.8983 113.279 27.8168C113.365 27.1196 113.468 26.4243 113.589 25.7318Z" fill="#2C2C2C"/>
<path d="M107.046 9.8281C107.867 9.90812 109.292 9.60795 109.791 10.0817C110.228 10.4974 110.859 12.2228 110.873 12.8107C110.345 12.7272 109.017 12.7896 108.28 12.7243C107.925 11.736 107.513 10.769 107.046 9.8281Z" fill="#2C2C2C"/>
<path d="M140 4C140 1.79086 141.791 0 144 0H169C171.209 0 173 1.79086 173 4V14C173 16.2091 171.209 18 169 18H140V4Z" fill="#F18F18"/>
<path d="M145.644 4.264C145.908 4.264 146.136 4.348 146.316 4.516C146.484 4.684 146.58 4.9 146.58 5.164C146.58 5.428 146.484 5.656 146.304 5.824C146.124 5.992 145.908 6.076 145.644 6.076C145.38 6.076 145.164 5.992 144.984 5.824C144.804 5.644 144.72 5.428 144.72 5.164C144.72 4.9 144.804 4.684 144.984 4.516C145.164 4.348 145.38 4.264 145.644 4.264ZM144.96 6.796H146.328V13H144.96V6.796ZM150.809 6.628C151.613 6.628 152.249 6.808 152.729 7.168C153.221 7.552 153.533 8.128 153.653 8.908H152.297C152.213 8.512 152.045 8.224 151.805 8.032C151.553 7.84 151.217 7.744 150.809 7.744C150.305 7.744 149.909 7.924 149.621 8.308C149.333 8.68 149.189 9.208 149.189 9.88C149.189 10.564 149.321 11.104 149.609 11.488C149.873 11.86 150.269 12.052 150.797 12.052C151.709 12.052 152.213 11.596 152.321 10.696H153.677C153.533 11.536 153.209 12.16 152.717 12.568C152.237 12.964 151.589 13.168 150.785 13.168C149.825 13.168 149.081 12.856 148.553 12.232C148.037 11.632 147.785 10.852 147.785 9.892C147.785 8.956 148.037 8.188 148.541 7.6C149.081 6.952 149.837 6.628 150.809 6.628ZM157.631 6.628C158.567 6.628 159.323 6.928 159.899 7.552C160.463 8.164 160.751 8.944 160.751 9.904C160.751 10.852 160.463 11.632 159.911 12.232C159.335 12.856 158.567 13.168 157.631 13.168C156.683 13.168 155.927 12.856 155.351 12.232C154.787 11.632 154.511 10.852 154.511 9.904C154.511 8.944 154.787 8.164 155.363 7.552C155.927 6.928 156.683 6.628 157.631 6.628ZM157.631 7.744C157.055 7.744 156.623 7.96 156.311 8.416C156.047 8.8 155.915 9.304 155.915 9.904C155.915 10.504 156.047 10.996 156.311 11.38C156.623 11.824 157.055 12.052 157.631 12.052C158.195 12.052 158.639 11.824 158.951 11.38C159.215 10.984 159.359 10.492 159.359 9.904C159.359 9.304 159.215 8.8 158.951 8.416C158.639 7.96 158.195 7.744 157.631 7.744ZM165.151 6.628C166.699 6.628 167.479 7.468 167.479 9.172V13H166.111V9.292C166.111 8.272 165.643 7.768 164.707 7.768C164.371 7.768 164.071 7.888 163.819 8.128C163.531 8.392 163.363 8.776 163.315 9.268V13H161.947V6.796H163.315V7.516C163.555 7.228 163.831 7 164.131 6.856C164.443 6.7 164.779 6.628 165.151 6.628Z" fill="white"/>
</svg>
