<svg width="184" height="38" viewBox="0 0 184 38" fill="none" xmlns="http://www.w3.org/2000/svg">
<g clip-path="url(#clip0_307_33765)">
<g clip-path="url(#clip1_307_33765)">
<path fill-rule="evenodd" clip-rule="evenodd" d="M128.158 0.582769H126.981C126.613 0.58511 126.261 0.731997 126 0.991736C125.74 1.25148 125.591 1.60325 125.588 1.97115V6.3924C124.497 5.57745 123.171 5.13625 121.809 5.13432C118.179 5.13432 115.24 8.20314 115.24 11.9909C115.24 15.7786 118.179 18.8519 121.827 18.8519C125.476 18.8519 128.396 15.7831 128.396 11.9954V0.79844C128.396 0.768331 128.389 0.738647 128.377 0.711224C128.364 0.683802 128.346 0.659223 128.324 0.639009C128.301 0.618794 128.275 0.603374 128.247 0.5937C128.218 0.584027 128.188 0.580306 128.158 0.582769ZM121.827 15.9448C120.813 15.9108 119.854 15.4759 119.159 14.7355C118.465 13.9951 118.093 13.0097 118.125 11.9954C118.089 11.4875 118.159 10.9777 118.329 10.4978C118.499 10.0179 118.766 9.57815 119.113 9.20583C119.46 8.83352 119.881 8.53664 120.347 8.33365C120.814 8.13066 121.318 8.02591 121.827 8.02591C122.336 8.02591 122.84 8.13066 123.307 8.33365C123.774 8.53664 124.194 8.83352 124.541 9.20583C124.888 9.57815 125.155 10.0179 125.325 10.4978C125.495 10.9777 125.565 11.4875 125.53 11.9954C125.561 13.0097 125.189 13.9951 124.495 14.7355C123.801 15.4759 122.841 15.9108 121.827 15.9448Z" fill="#191919"/>
<path fill-rule="evenodd" clip-rule="evenodd" d="M69.7071 0.631836H62.4282C62.3698 0.631836 62.3138 0.655032 62.2725 0.69632C62.2312 0.737609 62.208 0.793609 62.208 0.852V2.07863C62.2208 2.48511 62.3911 2.87072 62.6828 3.15407C62.9745 3.43742 63.3649 3.59635 63.7716 3.59731V15.913C63.1111 16.1556 62.873 16.8656 62.873 17.6519V18.6044C62.8724 18.6337 62.8776 18.6628 62.8884 18.69C62.8992 18.7173 62.9154 18.7421 62.9359 18.763C62.9564 18.7839 62.9808 18.8005 63.0079 18.8119C63.0349 18.8232 63.0639 18.8291 63.0932 18.8291H69.6621C74.7708 18.8291 77.2645 14.9066 77.2645 9.86525C77.2645 4.82394 74.8203 0.631836 69.7071 0.631836ZM69.6082 15.9085H66.9123C66.8996 15.9075 66.8876 15.902 66.8785 15.8929C66.8695 15.8838 66.8639 15.8719 66.8629 15.8591V3.61978C66.8647 3.60731 66.8705 3.59576 66.8794 3.58686C66.8883 3.57795 66.8999 3.57216 66.9123 3.57035H69.6082C72.686 3.57035 74.2991 6.2887 74.2991 9.64508C74.2991 13.0015 72.6905 15.913 69.6127 15.913L69.6082 15.9085Z" fill="#191919"/>
<path fill-rule="evenodd" clip-rule="evenodd" d="M157.733 0.631836H156.56C156.188 0.637743 155.833 0.790079 155.572 1.05584C155.311 1.3216 155.166 1.67938 155.167 2.05167V3.81748C155.353 3.73915 155.55 3.68917 155.751 3.6692H156.65C156.992 3.6692 157.32 3.53334 157.562 3.29151C157.803 3.04967 157.939 2.72167 157.939 2.37967V0.852C157.939 0.795871 157.918 0.741821 157.88 0.700899C157.841 0.659976 157.789 0.635272 157.733 0.631836Z" fill="#191919"/>
<path fill-rule="evenodd" clip-rule="evenodd" d="M157.733 5.20996H156.56C156.187 5.21587 155.831 5.36883 155.57 5.63556C155.31 5.90229 155.165 6.26122 155.167 6.63429V18.5816C155.166 18.6106 155.172 18.6395 155.183 18.6665C155.193 18.6935 155.21 18.718 155.23 18.7386C155.251 18.7592 155.275 18.7754 155.302 18.7862C155.329 18.7971 155.358 18.8023 155.387 18.8017H156.56C156.932 18.7958 157.287 18.6435 157.548 18.3777C157.809 18.112 157.954 17.7542 157.953 17.3819V5.43012C157.953 5.40121 157.947 5.37258 157.936 5.34587C157.925 5.31916 157.909 5.29489 157.888 5.27444C157.868 5.254 157.844 5.23778 157.817 5.22672C157.79 5.21566 157.762 5.20996 157.733 5.20996Z" fill="#191919"/>
<path fill-rule="evenodd" clip-rule="evenodd" d="M165.087 15.7429C165.774 15.7382 166.452 15.5982 167.085 15.3309C167.717 15.0636 168.29 14.6742 168.772 14.1851C169.253 13.696 169.634 13.1167 169.891 12.4804C170.149 11.8441 170.278 11.1633 170.272 10.4769C170.276 10.1239 170.243 9.77153 170.173 9.42551C170.16 9.37718 170.131 9.33448 170.092 9.30373C170.052 9.27298 170.003 9.25581 169.953 9.25477H168.879C168.694 9.25289 168.509 9.28851 168.337 9.35948C168.165 9.43046 168.01 9.53534 167.879 9.66786C167.749 9.80039 167.646 9.95783 167.578 10.1308C167.51 10.3038 167.477 10.4887 167.482 10.6746C167.448 11.2849 167.18 11.8585 166.734 12.2767C166.288 12.6948 165.698 12.9256 165.087 12.9212C164.462 12.8943 163.872 12.6271 163.439 12.1755C163.007 11.7238 162.765 11.1225 162.765 10.4971C162.765 9.8717 163.007 9.27043 163.439 8.81878C163.872 8.36713 164.462 8.09998 165.087 8.07307H168.879C169.252 8.06716 169.607 7.91483 169.867 7.64907C170.128 7.38331 170.274 7.02552 170.272 6.65324V5.4311C170.272 5.37271 170.249 5.31671 170.208 5.27542C170.167 5.23413 170.111 5.21094 170.052 5.21094H165.087C163.691 5.21094 162.351 5.76574 161.364 6.7533C160.376 7.74086 159.821 9.08028 159.821 10.4769C159.821 11.8735 160.376 13.2129 161.364 14.2005C162.351 15.1881 163.691 15.7429 165.087 15.7429Z" fill="#191919"/>
<path fill-rule="evenodd" clip-rule="evenodd" d="M165.088 16.9639C163.421 16.9807 161.825 17.6431 160.636 18.812C159.447 19.9809 158.757 21.5651 158.712 23.2318C158.711 23.2609 158.717 23.2898 158.727 23.3168C158.738 23.3438 158.755 23.3683 158.775 23.3888C158.796 23.4094 158.82 23.4256 158.847 23.4365C158.874 23.4473 158.903 23.4526 158.932 23.452H161.278C161.307 23.4526 161.336 23.4473 161.363 23.4365C161.39 23.4256 161.414 23.4094 161.435 23.3888C161.455 23.3683 161.471 23.3438 161.482 23.3168C161.493 23.2898 161.498 23.2609 161.498 23.2318C161.498 22.2785 161.876 21.3642 162.551 20.6901C163.225 20.016 164.139 19.6373 165.092 19.6373C166.046 19.6373 166.96 20.016 167.634 20.6901C168.308 21.3642 168.687 22.2785 168.687 23.2318C168.686 23.2609 168.691 23.2898 168.702 23.3168C168.713 23.3438 168.729 23.3683 168.75 23.3888C168.77 23.4094 168.795 23.4256 168.822 23.4365C168.849 23.4473 168.878 23.4526 168.907 23.452H171.252C171.281 23.4526 171.31 23.4473 171.337 23.4365C171.364 23.4256 171.389 23.4094 171.409 23.3888C171.43 23.3683 171.446 23.3438 171.457 23.3168C171.468 23.2898 171.473 23.2609 171.472 23.2318C171.426 21.5639 170.735 19.979 169.544 18.8102C168.354 17.6413 166.756 16.9795 165.088 16.9639Z" fill="#191919"/>
<path fill-rule="evenodd" clip-rule="evenodd" d="M177.408 5.28712C174.231 5.28712 172.228 7.61008 172.228 10.5486V18.4116C172.228 18.4405 172.233 18.4691 172.244 18.4958C172.255 18.5226 172.272 18.5468 172.292 18.5673C172.312 18.5877 172.337 18.6039 172.363 18.615C172.39 18.6261 172.419 18.6318 172.448 18.6318H173.62C174.009 18.6285 174.381 18.4752 174.659 18.2038C174.937 17.9325 175.099 17.5642 175.112 17.176V10.4767C175.098 10.1634 175.148 9.85045 175.259 9.55687C175.369 9.26329 175.538 8.99511 175.755 8.7685C175.971 8.54189 176.232 8.36155 176.52 8.23834C176.809 8.11513 177.119 8.05161 177.433 8.05161C177.746 8.05161 178.057 8.11513 178.345 8.23834C178.634 8.36155 178.894 8.54189 179.111 8.7685C179.328 8.99511 179.497 9.26329 179.607 9.55687C179.718 9.85045 179.767 10.1634 179.754 10.4767V18.3846C179.753 18.4137 179.758 18.4426 179.769 18.4696C179.78 18.4966 179.796 18.5211 179.817 18.5417C179.837 18.5622 179.862 18.5784 179.889 18.5893C179.916 18.6001 179.945 18.6054 179.974 18.6048H181.196C181.575 18.6002 181.937 18.4486 182.206 18.182C182.475 17.9154 182.63 17.5547 182.638 17.176L182.665 10.5621C182.687 9.86501 182.566 9.17086 182.31 8.52225C182.053 7.87364 181.667 7.28425 181.175 6.79027C180.683 6.29629 180.094 5.90815 179.447 5.64966C178.799 5.39117 178.105 5.2678 177.408 5.28712Z" fill="#191919"/>
<path fill-rule="evenodd" clip-rule="evenodd" d="M148.567 10.6736C147.322 10.3771 146.293 10.0356 146.293 9.2538C146.293 8.47199 147.192 7.82947 148.423 7.82947C148.792 7.81006 149.16 7.87251 149.502 8.01234C149.844 8.15217 150.15 8.36591 150.4 8.63824C150.527 8.82667 150.698 8.98122 150.899 9.08849C151.099 9.19576 151.323 9.2525 151.55 9.2538H153.163C153.194 9.25268 153.224 9.24532 153.252 9.23216C153.28 9.219 153.305 9.20032 153.326 9.17723C153.347 9.15414 153.362 9.12712 153.372 9.09781C153.382 9.0685 153.386 9.0375 153.383 9.00667C153.235 6.87692 151.06 5.1875 148.396 5.1875C145.633 5.1875 143.409 6.98476 143.409 9.2538C143.409 11.3566 144.779 12.3361 147.834 13.046C149.546 13.4144 150.791 13.8323 150.791 14.7624C150.791 15.5442 149.717 16.1553 148.396 16.1553C147.99 16.1804 147.583 16.1171 147.204 15.9697C146.824 15.8223 146.482 15.5943 146.199 15.3016C145.943 15.0745 145.611 14.9511 145.269 14.9556H143.472C143.44 14.9546 143.409 14.9605 143.38 14.973C143.351 14.9855 143.325 15.0041 143.304 15.0277C143.283 15.0513 143.267 15.0792 143.258 15.1094C143.249 15.1396 143.247 15.1715 143.251 15.2027C143.543 17.2336 145.745 18.7972 148.409 18.7972C151.267 18.7972 153.59 17 153.59 14.7534C153.577 12.0665 150.692 11.1858 148.567 10.6736Z" fill="#191919"/>
<path fill-rule="evenodd" clip-rule="evenodd" d="M136.067 5.1875C132.764 5.1875 130.077 7.43407 130.077 11.9946C130.077 16.5552 132.773 18.9006 136.067 18.9006C137.257 18.8947 138.422 18.548 139.422 17.9015C140.422 17.2549 141.216 16.3356 141.71 15.2521C141.726 15.2204 141.733 15.185 141.731 15.1496C141.729 15.1142 141.717 15.0799 141.698 15.0504C141.678 15.0208 141.651 14.9968 141.619 14.981C141.587 14.9651 141.552 14.9579 141.517 14.9601H139.585C139.103 14.9318 138.629 15.0931 138.264 15.4094C137.691 15.8974 136.958 16.1552 136.206 16.1328C134.764 16.1328 133.398 15.4004 133.007 13.2662C133.008 13.2534 133.013 13.2414 133.022 13.2324C133.031 13.2233 133.043 13.2178 133.056 13.2167H141.562C141.671 13.2177 141.778 13.1784 141.86 13.1064C141.943 13.0344 141.997 12.9346 142.011 12.8258C142.011 12.5563 142.056 12.2867 142.056 11.9677C142.047 7.36668 139.351 5.1875 136.067 5.1875ZM139.045 10.7231H133.011C132.998 10.722 132.986 10.7165 132.977 10.7074C132.968 10.6984 132.963 10.6864 132.962 10.6736C133.411 8.51692 134.597 7.87889 136.04 7.87889C137.482 7.87889 138.825 8.56634 139.095 10.6736C139.094 10.6864 139.088 10.6984 139.079 10.7074C139.07 10.7165 139.058 10.722 139.045 10.7231Z" fill="#191919"/>
<path fill-rule="evenodd" clip-rule="evenodd" d="M106.034 0.784595H94.6255C94.5962 0.784589 94.5672 0.790429 94.5402 0.801773C94.5132 0.813117 94.4887 0.829737 94.4682 0.85066C94.4477 0.871582 94.4316 0.896386 94.4208 0.923618C94.41 0.950851 94.4047 0.979964 94.4053 1.00925V2.18196C94.4112 2.55462 94.5634 2.91001 94.829 3.17145C95.0947 3.43288 95.4525 3.57938 95.8252 3.57933H102.61L94.5356 15.8276C94.4507 15.9403 94.405 16.0775 94.4053 16.2185V18.573C94.4053 18.6313 94.4285 18.6873 94.4698 18.7286C94.5111 18.7699 94.5671 18.7931 94.6255 18.7931H106.123C106.496 18.7932 106.854 18.6467 107.12 18.3852C107.385 18.1238 107.537 17.7684 107.543 17.3958V16.232C107.543 16.2031 107.538 16.1745 107.527 16.1478C107.515 16.1211 107.499 16.0968 107.479 16.0763C107.458 16.0559 107.434 16.0397 107.407 16.0286C107.381 16.0176 107.352 16.0119 107.323 16.0119H98.0493L106.137 3.75007C106.22 3.63671 106.266 3.49993 106.267 3.35917V1.00027C106.267 0.970563 106.26 0.94128 106.248 0.914178C106.236 0.887076 106.218 0.862716 106.196 0.842566C106.175 0.822416 106.149 0.806892 106.121 0.796929C106.093 0.786967 106.063 0.782771 106.034 0.784595Z" fill="#191919"/>
<path d="M112.68 16.0078H110.312C110.19 16.0078 110.092 16.1064 110.092 16.228V18.5824C110.092 18.704 110.19 18.8025 110.312 18.8025H112.68C112.801 18.8025 112.9 18.704 112.9 18.5824V16.228C112.9 16.1064 112.801 16.0078 112.68 16.0078Z" fill="#191919"/>
<path fill-rule="evenodd" clip-rule="evenodd" d="M91.2738 16.0114H81.9955L88.2859 1.09421C88.3009 1.06059 88.3073 1.02374 88.3044 0.98703C88.3015 0.950318 88.2894 0.91492 88.2693 0.884075C88.2492 0.85323 88.2217 0.827923 88.1892 0.810472C88.1568 0.79302 88.1205 0.783982 88.0837 0.784183H85.1991C85.0724 0.784769 84.9486 0.822551 84.8432 0.892841C84.7378 0.963132 84.6553 1.06284 84.606 1.17958L78.4055 15.8901C78.3701 15.9693 78.3517 16.055 78.3516 16.1417V18.5815C78.3516 18.6108 78.3574 18.6398 78.3687 18.6668C78.3801 18.6938 78.3967 18.7183 78.4176 18.7388C78.4385 18.7593 78.4633 18.7754 78.4906 18.7862C78.5178 18.797 78.5469 18.8023 78.5762 18.8017H90.0697C90.4427 18.8029 90.8012 18.6568 91.0671 18.3951C91.333 18.1334 91.4848 17.7773 91.4895 17.4043V16.2316C91.4895 16.174 91.4669 16.1187 91.4266 16.0775C91.3863 16.0363 91.3314 16.0126 91.2738 16.0114Z" fill="#191919"/>
</g>
<path d="M62.5824 29.984H67.1784C67.2504 29.348 67.2984 28.676 67.3104 27.98V26.936H68.4624V27.716C68.4624 28.508 68.4144 29.264 68.3184 29.984H73.1904V31.088H68.6064C69.4464 33.656 71.0664 35.636 73.4424 37.04L72.7344 37.964C70.4304 36.548 68.8104 34.568 67.8984 32.024C67.1064 34.772 65.4864 36.788 63.0504 38.072L62.3184 37.112C64.7904 35.912 66.3504 33.896 66.9864 31.088H62.5824V29.984Z" fill="#191919"/>
<path d="M81.2544 32.624C81.6624 30.752 81.9504 29.096 82.1184 27.656C82.4064 27.704 82.7184 27.74 83.0304 27.752C85.8144 27.74 88.0704 27.464 89.7984 26.936L90.3384 27.896C88.4784 28.4 86.0424 28.676 83.0424 28.724C82.8744 29.756 82.6944 30.68 82.5144 31.508H85.6464V29.3H86.7984V31.508H91.0824V32.624H86.7984V36.644C86.7984 37.508 86.3784 37.952 85.5624 37.952H83.9424L83.6904 36.836C84.2064 36.884 84.6984 36.908 85.1664 36.908C85.4784 36.908 85.6464 36.716 85.6464 36.356V32.624H81.2544ZM82.7784 33.38L83.7864 33.872C83.1864 35.264 82.4904 36.476 81.6984 37.508L80.7024 36.788C81.5064 35.84 82.2024 34.7 82.7784 33.38ZM89.2584 33.32C89.9544 34.436 90.6264 35.66 91.2744 37.004L90.1944 37.544C89.5944 36.152 88.9464 34.904 88.2504 33.8L89.2584 33.32Z" fill="#191919"/>
<path d="M101.882 26.936H103.034V32.396H101.882V30.86C101.162 31.256 100.358 31.616 99.4464 31.952L99.0024 30.932C100.094 30.596 101.054 30.212 101.882 29.768V26.936ZM103.61 28.208H106.046V26.9H107.186V28.208H109.61V29.228H107.186V30.752H109.274V31.772H103.982V30.752H106.046V29.228H103.61V28.208ZM99.7944 27.392C100.466 27.704 101.09 28.076 101.642 28.52L101.078 29.408C100.454 28.928 99.8304 28.544 99.1944 28.28L99.7944 27.392ZM99.0144 32.924H103.994C103.85 32.672 103.682 32.432 103.502 32.204L104.546 31.856C104.786 32.18 105.002 32.54 105.194 32.924H109.718V33.956H105.41C105.734 34.46 106.118 34.916 106.562 35.324C107.186 34.916 107.714 34.46 108.158 33.968L108.962 34.676C108.506 35.156 107.966 35.576 107.366 35.948C108.074 36.416 108.902 36.788 109.838 37.064L109.178 38.048C106.982 37.292 105.374 35.948 104.366 34.016C103.886 34.508 103.298 34.964 102.602 35.384V36.776C103.466 36.584 104.282 36.368 105.038 36.116L105.218 37.124C104.138 37.436 102.842 37.736 101.318 38.024L101.09 37.052C101.402 36.932 101.558 36.74 101.558 36.5V35.936C100.934 36.224 100.262 36.488 99.5424 36.728L98.9544 35.756C100.826 35.276 102.218 34.676 103.154 33.956H99.0144V32.924Z" fill="#191919"/>
<path d="M118.634 27.104C119.402 27.68 120.038 28.268 120.566 28.844L119.786 29.636C119.33 29.072 118.682 28.472 117.854 27.848L118.634 27.104ZM117.098 30.524H119.786V35.6C120.158 35.288 120.554 34.928 120.986 34.52L121.298 35.72C120.518 36.44 119.69 37.088 118.814 37.652L118.382 36.62C118.574 36.452 118.682 36.236 118.682 35.984V31.616H117.098V30.524ZM121.382 31.952H127.202V32.996C126.854 34.064 126.278 34.976 125.474 35.744C126.242 36.248 127.178 36.704 128.258 37.088L127.646 38.072C126.446 37.592 125.45 37.04 124.634 36.44C123.698 37.112 122.534 37.652 121.166 38.06L120.53 37.1C121.802 36.728 122.87 36.26 123.734 35.684C122.918 34.892 122.354 34.016 122.066 33.056H121.382V31.952ZM123.134 33.056C123.41 33.788 123.878 34.448 124.55 35.048C125.198 34.46 125.702 33.8 126.05 33.056H123.134ZM122.222 27.32H126.47V29.84C126.47 30.104 126.614 30.248 126.914 30.248H127.97V31.292H126.614C125.762 31.292 125.342 30.884 125.342 30.092V28.388H123.35V28.748C123.35 29.996 122.714 30.968 121.454 31.652L120.698 30.776C121.706 30.32 122.222 29.684 122.222 28.868V27.32Z" fill="#191919"/>
<path d="M139.106 30.428H142.25V26.912H143.426V30.428H146.402V31.556H143.426V38.024H142.25V31.556H139.106V30.428ZM136.922 27.02C137.702 27.608 138.362 28.196 138.902 28.796L138.122 29.588C137.642 29.024 136.982 28.424 136.13 27.8L136.922 27.02ZM135.338 30.5H138.11V35.612C138.494 35.3 138.89 34.94 139.31 34.544L139.61 35.708C138.842 36.428 138.014 37.076 137.138 37.64L136.706 36.62C136.91 36.452 137.018 36.248 137.018 36.008V31.592H135.338V30.5Z" fill="#191919"/>
<path d="M158.498 26.876H159.674V28.952H163.946V34.748H162.806V34.064H159.674V38.084H158.498V34.064H155.378V34.748H154.238V28.952H158.498V26.876ZM155.378 32.948H158.498V30.068H155.378V32.948ZM159.674 32.948H162.806V30.068H159.674V32.948Z" fill="#191919"/>
<path d="M178.91 37.604H176.246C175.31 37.604 174.842 37.136 174.842 36.224V29.432H175.982V35.984C175.982 36.32 176.186 36.488 176.594 36.488H178.694C178.934 36.488 179.102 36.368 179.21 36.14C179.33 35.876 179.426 35.084 179.474 33.74L180.554 34.1C180.458 35.804 180.278 36.812 180.014 37.148C179.774 37.448 179.402 37.604 178.91 37.604ZM173.03 30.62L174.122 30.848C173.798 32.984 173.33 34.832 172.73 36.38L171.746 35.768C172.346 34.16 172.766 32.444 173.03 30.62ZM181.094 30.296C181.79 31.904 182.414 33.608 182.942 35.432L181.898 35.9C181.322 33.932 180.686 32.18 179.99 30.668L181.094 30.296ZM176.822 26.9C177.878 28.112 178.694 29.168 179.27 30.08L178.31 30.728C177.71 29.744 176.906 28.664 175.886 27.488L176.822 26.9Z" fill="#191919"/>
<path d="M-0.140514 29.4478V36.1642C-0.140342 36.2686 -0.111624 36.3709 -0.0574675 36.4601C-0.00331126 36.5493 0.0742191 36.622 0.166729 36.6704C0.25924 36.7187 0.363205 36.7408 0.467369 36.7342C0.571532 36.7277 0.671926 36.6928 0.757679 36.6333C7.24441 32.2305 14.9036 29.8767 22.7434 29.8767C30.5832 29.8767 38.2424 32.2305 44.7291 36.6333C44.8148 36.6928 44.9152 36.7277 45.0194 36.7342C45.1236 36.7408 45.2275 36.7187 45.32 36.6704C45.4126 36.622 45.4901 36.5493 45.5442 36.4601C45.5984 36.3709 45.6271 36.2686 45.6273 36.1642V29.4478C45.6281 29.3454 45.6015 29.2447 45.5502 29.1562C45.4989 29.0676 45.4247 28.9945 45.3355 28.9443C38.4395 25.0533 30.6557 23.0088 22.7377 23.0088C14.8197 23.0088 7.0358 25.0533 0.139814 28.9443C0.0527231 28.9959 -0.0191135 29.0697 -0.0683625 29.1582C-0.117612 29.2466 -0.142509 29.3466 -0.140514 29.4478Z" fill="#191919"/>
<path d="M45.6272 8.18797V1.47155C45.627 1.36718 45.5983 1.26485 45.5441 1.17563C45.49 1.08641 45.4125 1.01371 45.3199 0.965391C45.2274 0.917073 45.1235 0.894983 45.0193 0.901511C44.9151 0.90804 44.8147 0.942938 44.729 1.00243C38.2451 5.4117 30.5844 7.76791 22.7433 7.76462C14.9022 7.76791 7.24151 5.4117 0.757587 1.00243C0.671834 0.942938 0.571441 0.90804 0.467277 0.901511C0.363113 0.894983 0.259148 0.917073 0.166638 0.965391C0.0741274 1.01371 -0.00340294 1.08641 -0.0575592 1.17563C-0.111715 1.26485 -0.140434 1.36718 -0.140605 1.47155V8.18797C-0.141451 8.29031 -0.114826 8.39101 -0.0635073 8.47956C-0.0121886 8.56811 0.0619449 8.64127 0.151164 8.69142C7.04263 12.5888 14.8261 14.6347 22.7433 14.6298C30.6605 14.6347 38.4439 12.5888 45.3354 8.69142C45.4246 8.64127 45.4988 8.56811 45.5501 8.47956C45.6014 8.39101 45.628 8.29031 45.6272 8.18797Z" fill="#191919"/>
</g>
<defs>
<clipPath id="clip0_307_33765">
<rect width="184" height="38" fill="white"/>
</clipPath>
<clipPath id="clip1_307_33765">
<rect width="122.214" height="23.9113" fill="white" transform="translate(61.4102 -0.475586)"/>
</clipPath>
</defs>
</svg>
